<svg width="914" height="400" fill="none" xmlns="http://www.w3.org/2000/svg"><style>#CL0 {fill: #00ACD7;}#CL1 {fill: #EEE;}@media (prefers-color-scheme: dark) {#CL0 {fill: #00ACD7;}#CL1 {fill: #333;}}</style><path d="M481.751 180H493l-23.352 24L493 228h-12.077l-.093-.095a.088.088 0 0 0-.034-.035l-16.114-16.544-.008-.009c-.13-.133-.262-.263-.397-.39a3.421 3.421 0 0 0-.144-.157 9.12 9.12 0 0 1-.338-.347l-.202-.199V228H429v-8.888h25.945v-11.38h-22.482V199.2h22.482v-10.312H429V180h34.593v18.671L481.751 180Z" id="CL1"/><path d="M477.751 176H489l-23.352 24L489 224h-12.077l-.093-.095a.088.088 0 0 0-.034-.035l-16.114-16.544-.008-.009c-.13-.133-.262-.263-.397-.39a3.421 3.421 0 0 0-.144-.157 9.12 9.12 0 0 1-.338-.347l-.202-.199V224H425v-8.888h25.945v-11.38h-22.482V195.2h22.482v-10.312H425V176h34.593v18.671L477.751 176Z" id="CL0"/></svg>