<svg width="914" height="400" fill="none" xmlns="http://www.w3.org/2000/svg"><path fill="#fff" d="M0 0h914v400H0z"/><path d="M437.968 203.23h-9.133c.146 2.033 1.426 3.049 3.842 3.049 1.54 0 2.894-.364 4.06-1.093v3.117c-1.294.692-2.976 1.039-5.045 1.039-2.26 0-4.015-.625-5.263-1.873-1.249-1.258-1.873-3.008-1.873-5.25 0-2.324.674-4.166 2.023-5.524 1.349-1.358 3.008-2.037 4.977-2.037 2.041 0 3.618.606 4.73 1.819 1.121 1.212 1.682 2.857 1.682 4.935v1.818Zm-4.006-2.652c0-2.005-.811-3.008-2.434-3.008-.693 0-1.294.287-1.804.862-.502.574-.807 1.289-.917 2.146h5.155ZM454.005 209h-5.181l-4.471-6.945h-.055V209h-4.32v-20.727h4.32v13.194h.055l4.17-6.467h5.127l-5.018 6.576 5.373 7.424Z" fill="#333"/><path d="M456.33 209.273c-.365 0-.674-.127-.93-.382a1.267 1.267 0 0 1-.382-.93c0-.374.123-.688.369-.943.255-.256.569-.383.943-.383.182 0 .351.036.506.109.164.064.305.155.424.274a1.297 1.297 0 0 1 .396.943c0 .182-.036.355-.109.519a1.467 1.467 0 0 1-.287.411c-.119.118-.26.209-.424.273a1.173 1.173 0 0 1-.506.109Zm16.352-1.353c0 2.598-.592 4.521-1.777 5.769-1.176 1.258-2.994 1.887-5.455 1.887a9.602 9.602 0 0 1-4.348-1.025v-1.778c1.522.848 2.971 1.272 4.348 1.272 3.655 0 5.482-1.932 5.482-5.797v-1.682h-.054c-1.076 1.842-2.717 2.762-4.922 2.762-.866 0-1.659-.159-2.379-.478a5.133 5.133 0 0 1-1.832-1.381c-.511-.602-.907-1.331-1.19-2.188-.282-.866-.424-1.841-.424-2.926 0-1.148.151-2.192.452-3.13.3-.948.729-1.76 1.285-2.434a5.69 5.69 0 0 1 2.01-1.559c.792-.373 1.681-.56 2.666-.56 1.977 0 3.422.802 4.334 2.406h.054V195h1.75v12.92Zm-1.75-7.424c0-.583-.105-1.135-.314-1.654a4.295 4.295 0 0 0-.875-1.367 4.12 4.12 0 0 0-1.34-.93 3.98 3.98 0 0 0-1.695-.356c-.73 0-1.39.142-1.983.424a4.375 4.375 0 0 0-1.504 1.203c-.41.52-.729 1.153-.957 1.901-.219.738-.328 1.572-.328 2.502 0 .857.105 1.631.315 2.324.209.693.505 1.281.888 1.764a4 4 0 0 0 1.381 1.121 4.128 4.128 0 0 0 1.818.396c.693 0 1.322-.123 1.887-.369a4.383 4.383 0 0 0 1.449-1.039c.401-.447.711-.966.93-1.559a5.626 5.626 0 0 0 .328-1.941v-2.42Zm11.43 8.832c-1.039 0-1.973-.173-2.802-.519a6.044 6.044 0 0 1-2.106-1.463 6.55 6.55 0 0 1-1.34-2.284c-.31-.884-.464-1.863-.464-2.939 0-1.167.164-2.21.492-3.131.328-.92.793-1.7 1.394-2.338a6.016 6.016 0 0 1 2.201-1.476c.857-.338 1.814-.506 2.872-.506 1.011 0 1.923.168 2.734.506a5.507 5.507 0 0 1 2.064 1.435c.565.629.998 1.395 1.299 2.297.301.902.451 1.928.451 3.076 0 1.094-.159 2.092-.478 2.994a6.671 6.671 0 0 1-1.34 2.311 5.964 5.964 0 0 1-2.133 1.504c-.838.355-1.786.533-2.844.533Zm.137-13.139c-.765 0-1.458.133-2.078.397a4.39 4.39 0 0 0-1.6 1.162c-.437.501-.774 1.121-1.011 1.859-.237.73-.356 1.559-.356 2.489 0 .875.119 1.663.356 2.365a5.4 5.4 0 0 0 .998 1.805c.437.501.966.888 1.586 1.162.619.264 1.312.396 2.078.396.784 0 1.476-.127 2.078-.383a4.205 4.205 0 0 0 1.531-1.134c.419-.502.734-1.112.944-1.832.218-.72.328-1.541.328-2.461 0-1.887-.42-3.327-1.258-4.321-.839-1.002-2.037-1.504-3.596-1.504Z" fill="#555"/></svg>